<svg width="100" height="100" viewBox="0 0 100 100" fill="none" xmlns="http://www.w3.org/2000/svg">
<circle cx="50" cy="50" r="50" fill="#EA0234"/>
<path d="M48 26H52V50H48V26ZM42 27.375V31.75C38.4167 33.25 35.5 35.6667 33.25 39C31.0833 42.3333 30 46 30 50C30 55.5 31.9583 60.2083 35.875 64.125C39.7917 68.0417 44.5 70 50 70C55.5 70 60.2083 68.0417 64.125 64.125C68.0417 60.2083 70 55.5 70 50C70 46 68.875 42.3333 66.625 39C64.4583 35.6667 61.5833 33.25 58 31.75V27.375C62.75 29.0417 66.5833 31.9583 69.5 36.125C72.5 40.2083 74 44.8333 74 50C74 56.5833 71.625 62.25 66.875 67C62.2083 71.6667 56.5833 74 50 74C43.4167 74 37.75 71.6667 33 67C28.3333 62.25 26 56.5833 26 50C26 44.8333 27.4583 40.2083 30.375 36.125C33.375 31.9583 37.25 29.0417 42 27.375Z" fill="white"/>
</svg>
