<svg width="20" height="21" viewBox="0 0 20 21" fill="none" xmlns="http://www.w3.org/2000/svg">
<g clip-path="url(#clip0_2103_1504)">
<path d="M14.1666 18.4573V16.7906C14.1666 15.9066 13.8154 15.0587 13.1903 14.4336C12.5652 13.8085 11.7173 13.4573 10.8333 13.4573H4.16659C3.28253 13.4573 2.43468 13.8085 1.80956 14.4336C1.18444 15.0587 0.833252 15.9066 0.833252 16.7906V18.4573M19.1666 18.4573V16.7906C19.166 16.052 18.9202 15.3346 18.4677 14.7509C18.0152 14.1672 17.3817 13.7502 16.6666 13.5656M13.3333 3.56561C14.0503 3.74919 14.6858 4.16619 15.1396 4.75087C15.5935 5.33554 15.8398 6.05463 15.8398 6.79478C15.8398 7.53492 15.5935 8.25401 15.1396 8.83868C14.6858 9.42336 14.0503 9.84036 13.3333 10.0239M10.8333 6.79061C10.8333 8.63156 9.34087 10.1239 7.49992 10.1239C5.65897 10.1239 4.16659 8.63156 4.16659 6.79061C4.16659 4.94966 5.65897 3.45728 7.49992 3.45728C9.34087 3.45728 10.8333 4.94966 10.8333 6.79061Z" stroke="#282561" stroke-opacity="0.5" stroke-width="2" stroke-linecap="round" stroke-linejoin="round"/>
</g>
<defs>
<clipPath id="clip0_2103_1504">
<rect width="20" height="20" fill="white" transform="translate(0 0.957275)"/>
</clipPath>
</defs>
</svg>
