<svg width="20" height="21" viewBox="0 0 20 21" fill="none" xmlns="http://www.w3.org/2000/svg">
<g clip-path="url(#clip0_2130_1405)">
<path d="M14.1666 18.457V16.7904C14.1666 15.9063 13.8154 15.0585 13.1903 14.4333C12.5652 13.8082 11.7173 13.457 10.8333 13.457H4.16659C3.28253 13.457 2.43468 13.8082 1.80956 14.4333C1.18444 15.0585 0.833252 15.9063 0.833252 16.7904V18.457M19.1666 18.457V16.7904C19.166 16.0518 18.9202 15.3343 18.4677 14.7506C18.0152 14.1669 17.3817 13.75 16.6666 13.5654M13.3333 3.56536C14.0503 3.74895 14.6858 4.16595 15.1396 4.75062C15.5935 5.3353 15.8398 6.05439 15.8398 6.79453C15.8398 7.53467 15.5935 8.25376 15.1396 8.83844C14.6858 9.42311 14.0503 9.84011 13.3333 10.0237M10.8333 6.79036C10.8333 8.63131 9.34087 10.1237 7.49992 10.1237C5.65897 10.1237 4.16659 8.63131 4.16659 6.79036C4.16659 4.94942 5.65897 3.45703 7.49992 3.45703C9.34087 3.45703 10.8333 4.94942 10.8333 6.79036Z" stroke="#282561" stroke-width="2" stroke-linecap="round" stroke-linejoin="round"/>
</g>
<defs>
<clipPath id="clip0_2130_1405">
<rect width="20" height="20" fill="white" transform="translate(0 0.957031)"/>
</clipPath>
</defs>
</svg>
