<svg width="20" height="21" viewBox="0 0 20 21" fill="none" xmlns="http://www.w3.org/2000/svg">
<path d="M15.625 3.45728H4.375C4.20924 3.45728 4.05027 3.52312 3.93306 3.64033C3.81585 3.75754 3.75 3.91652 3.75 4.08228V17.8323C3.75 17.998 3.81585 18.157 3.93306 18.2742C4.05027 18.3914 4.20924 18.4573 4.375 18.4573H15.625C15.7908 18.4573 15.9497 18.3914 16.0669 18.2742C16.1842 18.157 16.25 17.998 16.25 17.8323V4.08228C16.25 3.91652 16.1842 3.75754 16.0669 3.64033C15.9497 3.52312 15.7908 3.45728 15.625 3.45728ZM10 14.0823C9.50555 14.0823 9.0222 13.9357 8.61107 13.6609C8.19995 13.3862 7.87952 12.9958 7.6903 12.539C7.50108 12.0822 7.45157 11.5795 7.54804 11.0945C7.6445 10.6096 7.8826 10.1641 8.23223 9.81451C8.58186 9.46488 9.02732 9.22678 9.51227 9.13031C9.99723 9.03385 10.4999 9.08336 10.9567 9.27258C11.4135 9.4618 11.804 9.78223 12.0787 10.1933C12.3534 10.6045 12.5 11.0878 12.5 11.5823C12.5 12.2453 12.2366 12.8812 11.7678 13.35C11.2989 13.8189 10.663 14.0823 10 14.0823Z" fill="black" fill-opacity="0.05"/>
<path d="M5.87422 16.4573C5.9399 16.5066 6.01468 16.5426 6.09426 16.563C6.17385 16.5834 6.25669 16.588 6.33803 16.5764C6.41937 16.5648 6.49763 16.5372 6.56832 16.4953C6.63901 16.4535 6.70075 16.398 6.75 16.3323C7.12841 15.8277 7.61909 15.4182 8.1832 15.1362C8.7473 14.8541 9.36932 14.7073 10 14.7073C10.6307 14.7073 11.2527 14.8541 11.8168 15.1362C12.3809 15.4182 12.8716 15.8277 13.25 16.3323C13.2992 16.3979 13.3609 16.4533 13.4316 16.4951C13.5022 16.5369 13.5804 16.5644 13.6616 16.576C13.7429 16.5876 13.8256 16.5831 13.9051 16.5627C13.9846 16.5424 14.0593 16.5065 14.125 16.4573C14.1907 16.408 14.246 16.3463 14.2878 16.2757C14.3296 16.2051 14.3571 16.1269 14.3687 16.0457C14.3803 15.9644 14.3758 15.8817 14.3554 15.8022C14.3351 15.7227 14.2992 15.6479 14.25 15.5823C13.6966 14.8403 12.9586 14.2561 12.1094 13.8877C12.5748 13.4629 12.9008 12.9072 13.0447 12.2937C13.1887 11.6802 13.1438 11.0375 12.9159 10.4499C12.688 9.86242 12.2879 9.35751 11.7679 9.00147C11.248 8.64544 10.6325 8.45492 10.0023 8.45492C9.37218 8.45492 8.75673 8.64544 8.23678 9.00147C7.71682 9.35751 7.31666 9.86242 7.08879 10.4499C6.86093 11.0375 6.81602 11.6802 6.95995 12.2937C7.10388 12.9072 7.42993 13.4629 7.89531 13.8877C7.0444 14.2554 6.30472 14.8396 5.75 15.5823C5.65046 15.7148 5.60763 15.8814 5.63092 16.0455C5.65422 16.2096 5.74173 16.3577 5.87422 16.4573ZM10 9.70728C10.3708 9.70728 10.7334 9.81724 11.0417 10.0233C11.35 10.2293 11.5904 10.5221 11.7323 10.8647C11.8742 11.2074 11.9113 11.5844 11.839 11.9481C11.7666 12.3118 11.588 12.6459 11.3258 12.9081C11.0636 13.1703 10.7295 13.3489 10.3658 13.4212C10.0021 13.4936 9.62508 13.4565 9.28247 13.3145C8.93986 13.1726 8.64702 12.9323 8.44099 12.624C8.23497 12.3156 8.125 11.9531 8.125 11.5823C8.125 11.085 8.32254 10.6081 8.67417 10.2564C9.02581 9.90482 9.50272 9.70728 10 9.70728ZM15.625 2.83228H4.375C4.04348 2.83228 3.72554 2.96397 3.49112 3.19839C3.2567 3.43281 3.125 3.75075 3.125 4.08228V17.8323C3.125 18.1638 3.2567 18.4817 3.49112 18.7162C3.72554 18.9506 4.04348 19.0823 4.375 19.0823H15.625C15.9565 19.0823 16.2745 18.9506 16.5089 18.7162C16.7433 18.4817 16.875 18.1638 16.875 17.8323V4.08228C16.875 3.75075 16.7433 3.43281 16.5089 3.19839C16.2745 2.96397 15.9565 2.83228 15.625 2.83228ZM15.625 17.8323H4.375V4.08228H15.625V17.8323ZM6.875 5.95728C6.875 5.79152 6.94085 5.63254 7.05806 5.51533C7.17527 5.39812 7.33424 5.33228 7.5 5.33228H12.5C12.6658 5.33228 12.8247 5.39812 12.9419 5.51533C13.0592 5.63254 13.125 5.79152 13.125 5.95728C13.125 6.12304 13.0592 6.28201 12.9419 6.39922C12.8247 6.51643 12.6658 6.58228 12.5 6.58228H7.5C7.33424 6.58228 7.17527 6.51643 7.05806 6.39922C6.94085 6.28201 6.875 6.12304 6.875 5.95728Z" fill="#282561" fill-opacity="0.5"/>
<path d="M6.7 16.2948L6.69997 16.2948C6.65565 16.354 6.60008 16.4039 6.53646 16.4416C6.47284 16.4793 6.40241 16.5041 6.3292 16.5145C6.25599 16.525 6.18144 16.5209 6.10981 16.5025C6.03818 16.4841 5.97089 16.4517 5.91177 16.4073C5.79253 16.3177 5.71377 16.1844 5.6928 16.0367C5.67184 15.889 5.71039 15.7391 5.79997 15.6198L5.80007 15.6197C6.34826 14.8858 7.07922 14.3084 7.9201 13.9451L8.00885 13.9068L7.93745 13.8416C7.48138 13.4252 7.16185 12.8806 7.0208 12.2794C6.87974 11.6782 6.92376 11.0483 7.14706 10.4725C7.37037 9.89677 7.76253 9.40196 8.27209 9.05304C8.78164 8.70413 9.38478 8.51742 10.0023 8.51742C10.6199 8.51742 11.223 8.70413 11.7326 9.05304C12.2422 9.40196 12.6343 9.89677 12.8576 10.4725C13.0809 11.0483 13.1249 11.6782 12.9839 12.2794C12.8428 12.8806 12.5233 13.4252 12.0672 13.8416L11.9959 13.9067L12.0845 13.9451C12.9237 14.3091 13.653 14.8864 14.1999 15.6196L14.2 15.6198C14.2443 15.6789 14.2766 15.7461 14.2949 15.8177C14.3132 15.8892 14.3173 15.9637 14.3068 16.0368C14.2964 16.11 14.2717 16.1803 14.234 16.2439C14.1964 16.3074 14.1466 16.363 14.0875 16.4073C14.0284 16.4516 13.9612 16.4838 13.8896 16.5022C13.818 16.5205 13.7436 16.5246 13.6705 16.5141C13.5973 16.5037 13.527 16.4789 13.4634 16.4413C13.3998 16.4037 13.3443 16.3539 13.3 16.2948C12.9158 15.7825 12.4175 15.3667 11.8448 15.0803C11.272 14.7939 10.6404 14.6448 10 14.6448C9.35961 14.6448 8.72802 14.7939 8.15524 15.0803C7.58247 15.3667 7.08423 15.7825 6.7 16.2948ZM15.625 17.8948H15.6875V17.8323V4.08228V4.01978H15.625H4.375H4.3125V4.08228V17.8323V17.8948H4.375H15.625ZM11.0764 9.9713C10.7578 9.75841 10.3832 9.64478 10 9.64478C9.48614 9.64478 8.99333 9.8489 8.62998 10.2123C8.26663 10.5756 8.0625 11.0684 8.0625 11.5823C8.0625 11.9655 8.17613 12.3401 8.38903 12.6587C8.60192 12.9773 8.90452 13.2256 9.25855 13.3723C9.61258 13.5189 10.0021 13.5573 10.378 13.4825C10.7538 13.4078 11.0991 13.2233 11.37 12.9523C11.641 12.6813 11.8255 12.3361 11.9003 11.9603C11.975 11.5844 11.9367 11.1949 11.79 10.8408C11.6434 10.4868 11.395 10.1842 11.0764 9.9713ZM4.375 2.89478H15.625C15.9399 2.89478 16.242 3.01989 16.4647 3.24259C16.6874 3.46529 16.8125 3.76733 16.8125 4.08228V17.8323C16.8125 18.1472 16.6874 18.4493 16.4647 18.672C16.242 18.8947 15.9399 19.0198 15.625 19.0198H4.375C4.06006 19.0198 3.75801 18.8947 3.53531 18.672C3.31261 18.4493 3.1875 18.1472 3.1875 17.8323V4.08228C3.1875 3.76733 3.31261 3.46529 3.53531 3.24259C3.75801 3.01989 4.06006 2.89478 4.375 2.89478ZM6.9375 5.95728C6.9375 5.80809 6.99676 5.66502 7.10225 5.55953C7.20774 5.45404 7.35082 5.39478 7.5 5.39478H12.5C12.6492 5.39478 12.7923 5.45404 12.8977 5.55953C13.0032 5.66502 13.0625 5.80809 13.0625 5.95728C13.0625 6.10646 13.0032 6.24953 12.8977 6.35502C12.7923 6.46051 12.6492 6.51978 12.5 6.51978H7.5C7.35082 6.51978 7.20774 6.46051 7.10225 6.35502C6.99676 6.24953 6.9375 6.10646 6.9375 5.95728Z" stroke="#282561" stroke-opacity="0.5" stroke-width="0.125"/>
</svg>
