<svg width="20" height="21" viewBox="0 0 20 21" fill="none" xmlns="http://www.w3.org/2000/svg">
<path d="M4.16667 18.457C3.70833 18.457 3.3125 18.2973 2.97917 17.9779C2.65972 17.6445 2.5 17.2487 2.5 16.7904V5.1237C2.5 4.66537 2.65972 4.27648 2.97917 3.95703C3.3125 3.6237 3.70833 3.45703 4.16667 3.45703H15.8333C16.2917 3.45703 16.6806 3.6237 17 3.95703C17.3333 4.27648 17.5 4.66537 17.5 5.1237V16.7904C17.5 17.2487 17.3333 17.6445 17 17.9779C16.6806 18.2973 16.2917 18.457 15.8333 18.457H4.16667ZM4.16667 16.7904H15.8333V14.2904H13.3333C12.9167 14.8181 12.4167 15.2279 11.8333 15.5195C11.2639 15.8112 10.6528 15.957 10 15.957C9.34722 15.957 8.72917 15.8112 8.14583 15.5195C7.57639 15.2279 7.08333 14.8181 6.66667 14.2904H4.16667V16.7904ZM10 14.2904C10.5278 14.2904 11.0069 14.1376 11.4375 13.832C11.8681 13.5265 12.1667 13.1237 12.3333 12.6237H15.8333V5.1237H4.16667V12.6237H7.66667C7.83333 13.1237 8.13195 13.5265 8.5625 13.832C8.99306 14.1376 9.47222 14.2904 10 14.2904ZM4.16667 16.7904H6.66667C7.08333 16.7904 7.57639 16.7904 8.14583 16.7904C8.72917 16.7904 9.34722 16.7904 10 16.7904C10.6528 16.7904 11.2639 16.7904 11.8333 16.7904C12.4167 16.7904 12.9167 16.7904 13.3333 16.7904H15.8333H4.16667Z" fill="#282561"/>
</svg>
