<svg width="20" height="21" viewBox="0 0 20 21" fill="none" xmlns="http://www.w3.org/2000/svg">
<path d="M9.16667 0.957275H10.8333V10.9573H9.16667V0.957275ZM6.66667 1.53019V3.35311C5.17361 3.97811 3.95833 4.98505 3.02083 6.37394C2.11806 7.76283 1.66667 9.29061 1.66667 10.9573C1.66667 13.2489 2.48264 15.2107 4.11458 16.8427C5.74653 18.4746 7.70833 19.2906 10 19.2906C12.2917 19.2906 14.2535 18.4746 15.8854 16.8427C17.5174 15.2107 18.3333 13.2489 18.3333 10.9573C18.3333 9.29061 17.8646 7.76283 16.9271 6.37394C16.0243 4.98505 14.8264 3.97811 13.3333 3.35311V1.53019C15.3125 2.22464 16.9097 3.43991 18.125 5.17603C19.375 6.87741 20 8.8045 20 10.9573C20 13.7003 19.0104 16.0614 17.0312 18.0406C15.0868 19.9851 12.7431 20.9573 10 20.9573C7.25694 20.9573 4.89583 19.9851 2.91667 18.0406C0.972222 16.0614 0 13.7003 0 10.9573C0 8.8045 0.607639 6.87741 1.82292 5.17603C3.07292 3.43991 4.6875 2.22464 6.66667 1.53019Z" fill="#282561" fill-opacity="0.5"/>
</svg>
