<svg width="19" height="20" viewBox="0 0 19 20" fill="none" xmlns="http://www.w3.org/2000/svg">
<path d="M9 19.1C14.0258 19.1 18.1 15.0258 18.1 10C18.1 4.97421 14.0258 0.9 9 0.9C3.97421 0.9 -0.1 4.97421 -0.1 10C-0.1 15.0258 3.97421 19.1 9 19.1Z" stroke="#5C5C5C" stroke-width="0.2"/>
<path d="M9 10.7929L6.73162 8.14645C6.56425 7.95118 6.29289 7.95118 6.12553 8.14645C5.95816 8.34171 5.95816 8.65829 6.12553 8.85355L8.69695 11.8536C8.86432 12.0488 9.13568 12.0488 9.30305 11.8536L11.8745 8.85355C12.0418 8.65829 12.0418 8.34171 11.8745 8.14645C11.7071 7.95118 11.4358 7.95118 11.2684 8.14645L9 10.7929Z" fill="#565656"/>
<mask id="mask0_2012_3163" style="mask-type:luminance" maskUnits="userSpaceOnUse" x="6" y="8" width="6" height="4">
<path d="M9 10.7929L6.73162 8.14645C6.56425 7.95118 6.29289 7.95118 6.12553 8.14645C5.95816 8.34171 5.95816 8.65829 6.12553 8.85355L8.69695 11.8536C8.86432 12.0488 9.13568 12.0488 9.30305 11.8536L11.8745 8.85355C12.0418 8.65829 12.0418 8.34171 11.8745 8.14645C11.7071 7.95118 11.4358 7.95118 11.2684 8.14645L9 10.7929Z" fill="white"/>
</mask>
<g mask="url(#mask0_2012_3163)">
</g>
</svg>
