<svg width="60" height="60" viewBox="0 0 60 60" fill="none" xmlns="http://www.w3.org/2000/svg">
<path opacity="0.21" fill-rule="evenodd" clip-rule="evenodd" d="M0.610352 30V37C0.610352 49.7025 10.9069 60 23.6082 60H29.9233H36.2384C48.9398 60 59.2363 49.7025 59.2363 37V30V23C59.2363 10.2975 48.9398 0 36.2384 0H29.9233H23.6082C10.9068 0 0.610352 10.2975 0.610352 23V30Z" fill="#EA0234"/>
<g clip-path="url(#clip0_2570_7568)">
<path d="M29.9223 15.3359V44.6693M36.4363 20.6693H26.6653C25.4559 20.6693 24.2961 21.1609 23.441 22.0361C22.5859 22.9113 22.1055 24.0983 22.1055 25.3359C22.1055 26.5736 22.5859 27.7606 23.441 28.6358C24.2961 29.5109 25.4559 30.0026 26.6653 30.0026H33.1793C34.3886 30.0026 35.5484 30.4943 36.4035 31.3694C37.2587 32.2446 37.7391 33.4316 37.7391 34.6693C37.7391 35.9069 37.2587 37.0939 36.4035 37.9691C35.5484 38.8443 34.3886 39.3359 33.1793 39.3359H22.1055" stroke="#EA0234" stroke-width="3" stroke-linecap="round" stroke-linejoin="round"/>
</g>
<defs>
<clipPath id="clip0_2570_7568">
<rect width="31.2672" height="32" fill="white" transform="translate(14.2886 14)"/>
</clipPath>
</defs>
</svg>
