<svg width="60" height="60" viewBox="0 0 60 60" fill="none" xmlns="http://www.w3.org/2000/svg">
<path opacity="0.21" fill-rule="evenodd" clip-rule="evenodd" d="M0.950195 30V37C0.950195 49.7025 11.2467 60 23.9481 60H30.2632H36.5783C49.2797 60 59.5761 49.7025 59.5761 37V30V23C59.5761 10.2975 49.2796 0 36.5783 0H30.2632H23.9481C11.2467 0 0.950195 10.2975 0.950195 23V30Z" fill="#8280FF"/>
<path opacity="0.587821" fill-rule="evenodd" clip-rule="evenodd" d="M21.1431 23.3333C21.1431 26.2789 23.4762 28.6667 26.3543 28.6667C29.2323 28.6667 31.5655 26.2789 31.5655 23.3333C31.5655 20.3878 29.2323 18 26.3543 18C23.4762 18 21.1431 20.3878 21.1431 23.3333ZM34.1717 28.668C34.1717 30.8771 35.9215 32.668 38.0801 32.668C40.2386 32.668 41.9885 30.8771 41.9885 28.668C41.9885 26.4588 40.2386 24.668 38.0801 24.668C35.9215 24.668 34.1717 26.4588 34.1717 28.668Z" fill="#8280FF"/>
<path fill-rule="evenodd" clip-rule="evenodd" d="M26.3333 31.332C20.1823 31.332 15.1357 34.5674 14.6307 40.931C14.6032 41.2776 15.2509 41.9987 15.5777 41.9987H37.0987C38.0774 41.9987 38.0926 41.1927 38.0774 40.932C37.6956 34.3896 32.5709 31.332 26.3333 31.332ZM40.1649 41.9993V42H45.1896C45.8964 42 45.9074 41.3955 45.8964 41.2C45.6237 36.3466 41.9996 34.0502 37.5614 34.0008C39.1962 36.229 40.1649 38.9984 40.1649 41.9993Z" fill="#8280FF"/>
</svg>
