<svg width="25" height="24" viewBox="0 0 25 24" fill="none" xmlns="http://www.w3.org/2000/svg">
<path d="M3.82178 6H5.82178M5.82178 6H21.8218M5.82178 6V20C5.82178 20.5304 6.03249 21.0391 6.40756 21.4142C6.78264 21.7893 7.29134 22 7.82178 22H17.8218C18.3522 22 18.8609 21.7893 19.236 21.4142C19.6111 21.0391 19.8218 20.5304 19.8218 20V6M8.82178 6V4C8.82178 3.46957 9.03249 2.96086 9.40756 2.58579C9.78264 2.21071 10.2913 2 10.8218 2H14.8218C15.3522 2 15.8609 2.21071 16.236 2.58579C16.6111 2.96086 16.8218 3.46957 16.8218 4V6M10.8218 11V17M14.8218 11V17" stroke="black" stroke-opacity="0.4" stroke-width="2.5" stroke-linecap="round" stroke-linejoin="round"/>
</svg>
