<svg width="32" height="32" viewBox="0 0 32 32" fill="none" xmlns="http://www.w3.org/2000/svg">
<rect width="32" height="32" fill="white"/>
<path d="M4 7.99935H6.66667M6.66667 7.99935H28M6.66667 7.99935L6.66667 26.666C6.66667 27.3733 6.94762 28.0515 7.44772 28.5516C7.94781 29.0517 8.62609 29.3327 9.33333 29.3327H22.6667C23.3739 29.3327 24.0522 29.0517 24.5523 28.5516C25.0524 28.0515 25.3333 27.3733 25.3333 26.666V7.99935M10.6667 7.99935V5.33268C10.6667 4.62544 10.9476 3.94716 11.4477 3.44706C11.9478 2.94697 12.6261 2.66602 13.3333 2.66602H18.6667C19.3739 2.66602 20.0522 2.94697 20.5523 3.44706C21.0524 3.94716 21.3333 4.62544 21.3333 5.33268V7.99935M13.3333 14.666V22.666M18.6667 14.666V22.666" stroke="black" stroke-width="3" stroke-linecap="round" stroke-linejoin="round"/>
</svg>
