<svg width="60" height="60" viewBox="0 0 60 60" fill="none" xmlns="http://www.w3.org/2000/svg">
<path opacity="0.21" fill-rule="evenodd" clip-rule="evenodd" d="M0.949219 30V37C0.949219 49.7025 11.2457 60 23.9471 60H30.2622H36.5773C49.2787 60 59.5752 49.7025 59.5752 37V30V23C59.5752 10.2975 49.2787 0 36.5773 0H30.2622H23.9471C11.2457 0 0.949219 10.2975 0.949219 23V30Z" fill="#8280FF"/>
<path opacity="0.587821" fill-rule="evenodd" clip-rule="evenodd" d="M25.1426 23.3333C25.1426 26.2789 27.4757 28.6667 30.3538 28.6667C33.2318 28.6667 35.565 26.2789 35.565 23.3333C35.565 20.3878 33.2318 18 30.3538 18C27.4757 18 25.1426 20.3878 25.1426 23.3333Z" fill="#8280FF"/>
<path fill-rule="evenodd" clip-rule="evenodd" d="M30.3323 31.3281C24.1813 31.3281 19.1347 34.5635 18.6298 40.9271C18.6022 41.2737 19.25 41.9948 19.5767 41.9948H41.0977C42.0764 41.9948 42.0916 41.1888 42.0764 40.9281C41.6946 34.3857 36.5699 31.3281 30.3323 31.3281Z" fill="#8280FF"/>
</svg>
