<svg width="20" height="21" viewBox="0 0 20 21" fill="none" xmlns="http://www.w3.org/2000/svg">
<path d="M15.625 3.46094H4.375C4.20924 3.46094 4.05027 3.52679 3.93306 3.644C3.81585 3.76121 3.75 3.92018 3.75 4.08594V17.8359C3.75 18.0017 3.81585 18.1607 3.93306 18.2779C4.05027 18.3951 4.20924 18.4609 4.375 18.4609H15.625C15.7908 18.4609 15.9497 18.3951 16.0669 18.2779C16.1842 18.1607 16.25 18.0017 16.25 17.8359V4.08594C16.25 3.92018 16.1842 3.76121 16.0669 3.644C15.9497 3.52679 15.7908 3.46094 15.625 3.46094ZM10 14.0859C9.50555 14.0859 9.0222 13.9393 8.61107 13.6646C8.19995 13.3899 7.87952 12.9995 7.6903 12.5426C7.50108 12.0858 7.45157 11.5832 7.54804 11.0982C7.6445 10.6133 7.8826 10.1678 8.23223 9.81817C8.58186 9.46854 9.02732 9.23044 9.51227 9.13397C9.99723 9.03751 10.4999 9.08702 10.9567 9.27624C11.4135 9.46546 11.804 9.78589 12.0787 10.197C12.3534 10.6081 12.5 11.0915 12.5 11.5859C12.5 12.249 12.2366 12.8849 11.7678 13.3537C11.2989 13.8225 10.663 14.0859 10 14.0859Z" fill="black" fill-opacity="0.05"/>
<path d="M6.7 16.2984L6.69997 16.2985C6.65565 16.3577 6.60008 16.4075 6.53646 16.4452C6.47284 16.4829 6.40241 16.5077 6.3292 16.5182C6.25599 16.5286 6.18144 16.5245 6.10981 16.5061C6.03818 16.4877 5.97089 16.4554 5.91177 16.411C5.79253 16.3214 5.71377 16.1881 5.6928 16.0404C5.67184 15.8927 5.71039 15.7427 5.79997 15.6235L5.80007 15.6233C6.34826 14.8895 7.07922 14.3121 7.9201 13.9488L8.00885 13.9104L7.93745 13.8452C7.48138 13.4289 7.16185 12.8843 7.0208 12.2831C6.87974 11.6818 6.92376 11.052 7.14706 10.4762C7.37037 9.90043 7.76253 9.40562 8.27209 9.0567C8.78164 8.70779 9.38478 8.52108 10.0023 8.52108C10.6199 8.52108 11.223 8.70779 11.7326 9.0567C12.2422 9.40562 12.6343 9.90043 12.8576 10.4762C13.0809 11.052 13.1249 11.6818 12.9839 12.2831C12.8428 12.8843 12.5233 13.4289 12.0672 13.8453L11.9959 13.9103L12.0845 13.9487C12.9237 14.3127 13.653 14.8901 14.1999 15.6233L14.2 15.6234C14.2443 15.6825 14.2766 15.7498 14.2949 15.8213C14.3132 15.8929 14.3173 15.9674 14.3068 16.0405C14.2964 16.1136 14.2717 16.184 14.234 16.2475C14.1964 16.3111 14.1466 16.3666 14.0875 16.4109C14.0284 16.4553 13.9612 16.4875 13.8896 16.5058C13.818 16.5242 13.7436 16.5282 13.6705 16.5178C13.5973 16.5073 13.527 16.4826 13.4634 16.445C13.3998 16.4073 13.3443 16.3575 13.3 16.2984C12.9158 15.7861 12.4175 15.3703 11.8448 15.0839C11.272 14.7975 10.6404 14.6484 10 14.6484C9.35961 14.6484 8.72802 14.7975 8.15524 15.0839C7.58247 15.3703 7.08423 15.7861 6.7 16.2984ZM15.625 17.8984H15.6875V17.8359V4.08594V4.02344H15.625H4.375H4.3125V4.08594V17.8359V17.8984H4.375H15.625ZM11.0764 9.97497C10.7578 9.76207 10.3832 9.64844 10 9.64844C9.48614 9.64844 8.99333 9.85257 8.62998 10.2159C8.26663 10.5793 8.0625 11.0721 8.0625 11.5859C8.0625 11.9691 8.17613 12.3437 8.38903 12.6624C8.60192 12.981 8.90452 13.2293 9.25855 13.376C9.61258 13.5226 10.0021 13.561 10.378 13.4862C10.7538 13.4115 11.0991 13.2269 11.37 12.956C11.641 12.685 11.8255 12.3398 11.9003 11.9639C11.975 11.5881 11.9367 11.1985 11.79 10.8445C11.6434 10.4905 11.395 10.1879 11.0764 9.97497ZM4.375 2.89844H15.625C15.9399 2.89844 16.242 3.02355 16.4647 3.24625C16.6874 3.46895 16.8125 3.77099 16.8125 4.08594V17.8359C16.8125 18.1509 16.6874 18.4529 16.4647 18.6756C16.242 18.8983 15.9399 19.0234 15.625 19.0234H4.375C4.06006 19.0234 3.75801 18.8983 3.53531 18.6756C3.31261 18.4529 3.1875 18.1509 3.1875 17.8359V4.08594C3.1875 3.77099 3.31261 3.46895 3.53531 3.24625C3.75801 3.02355 4.06006 2.89844 4.375 2.89844ZM6.9375 5.96094C6.9375 5.81175 6.99676 5.66868 7.10225 5.56319C7.20774 5.4577 7.35082 5.39844 7.5 5.39844H12.5C12.6492 5.39844 12.7923 5.4577 12.8977 5.56319C13.0032 5.66868 13.0625 5.81175 13.0625 5.96094C13.0625 6.11012 13.0032 6.2532 12.8977 6.35869C12.7923 6.46417 12.6492 6.52344 12.5 6.52344H7.5C7.35082 6.52344 7.20774 6.46417 7.10225 6.35869C6.99676 6.2532 6.9375 6.11012 6.9375 5.96094Z" fill="#282561" stroke="#282561" stroke-width="0.125"/>
</svg>
