<svg width="20" height="21" viewBox="0 0 20 21" fill="none" xmlns="http://www.w3.org/2000/svg">
<path d="M16.9408 6.62751L16.7214 6.84695L16.9408 6.62751ZM16.9408 6.62751L17.4397 6.62809L17.4402 6.12809M16.9408 6.62751L17.4402 6.12809M17.4402 6.12809L17.0867 5.77453L16.7339 6.12728M17.4402 6.12809L16.7339 6.12728M16.7339 6.12728L12.0019 6.12184L16.7339 6.12728ZM4.25416 12.3693C3.50349 11.6186 2.33118 11.5471 1.50016 12.1547V6.62191C1.50016 5.79476 2.17331 5.1216 3.00047 5.1216H9.89153C9.88174 5.20333 9.87662 5.28676 9.87662 5.37172C9.87662 6.22976 10.3859 6.96954 11.1185 7.30506C10.7619 7.18497 10.385 7.12207 10.0016 7.12207C9.07318 7.12207 8.18282 7.49087 7.52636 8.14733C6.86989 8.8038 6.50109 9.69416 6.50109 10.6225C6.50109 11.5509 6.86989 12.4413 7.52636 13.0977C7.84548 13.4169 8.21988 13.668 8.62705 13.8419C8.42918 13.7809 8.21903 13.7481 8.00125 13.7481H4.87186C4.84268 13.2474 4.63725 12.7553 4.2555 12.3706L4.25416 12.3693ZM12.4768 8.14733C12.1576 7.82821 11.7832 7.57707 11.3761 7.40322C11.5739 7.46417 11.7841 7.49697 12.0019 7.49697H15.1313C15.1604 7.99772 15.3659 8.48978 15.7476 8.87443L15.749 8.87576C16.4996 9.62644 17.6719 9.69797 18.503 9.09036V14.6232C18.503 15.4503 17.8298 16.1235 17.0027 16.1235H10.1116C10.1214 16.0418 10.1265 15.9583 10.1265 15.8734C10.1265 15.0153 9.6172 14.2755 8.88459 13.94C9.24123 14.0601 9.61816 14.123 10.0016 14.123C10.9299 14.123 11.8203 13.7542 12.4768 13.0977C13.1332 12.4413 13.502 11.5509 13.502 10.6225C13.502 9.69416 13.1332 8.8038 12.4768 8.14733ZM2.5747 14.4043L2.20935 14.7697L1.35579 15.6232H2.5629H8.00125C8.1408 15.6232 8.25137 15.7338 8.25137 15.8734C8.25137 16.0129 8.1408 16.1235 8.00125 16.1235H2.55978H1.35267L2.20622 16.977L2.92508 17.6959C3.02467 17.7955 3.02193 17.9525 2.92698 18.0464C2.82452 18.1478 2.66611 18.1428 2.57454 18.0502L2.57237 18.048L0.572338 16.0511C0.526745 16.0055 0.5 15.9426 0.5 15.8734C0.5 15.8041 0.526745 15.7412 0.572338 15.6956L2.57265 13.6953L2.2191 13.3417L2.57265 13.6953C2.67224 13.5957 2.82925 13.5984 2.9232 13.6934L3.27864 13.3417L2.9232 13.6934C3.02457 13.7958 3.01954 13.9542 2.92698 14.0458L2.56968 14.3993L2.5747 14.4043ZM17.4255 3.19486L17.4274 3.19675L19.4277 5.19707C19.4733 5.24266 19.5 5.30559 19.5 5.37485C19.5 5.4441 19.4733 5.50703 19.4277 5.55263L17.4274 7.55294C17.3278 7.65252 17.1707 7.64979 17.0768 7.55483C16.9754 7.45237 16.9805 7.29397 17.073 7.20239L17.0749 7.2005L17.7938 6.48164L18.6459 5.62947L17.4408 5.62809L12.0024 5.62184H12.0019C11.8623 5.62184 11.7518 5.51127 11.7518 5.37172C11.7518 5.23217 11.8623 5.1216 12.0019 5.1216H17.4433H18.6542L17.7961 4.26728L17.0749 3.54919C17.0749 3.54917 17.0749 3.54916 17.0749 3.54915C16.9753 3.44956 16.9781 3.29257 17.073 3.19864C17.1755 3.09727 17.3339 3.1023 17.4255 3.19486ZM5.50078 6.62191V6.12191H5.00078H3.00047H2.50047V6.62191V8.62223V9.12223H3.00047C4.37991 9.12223 5.50078 8.00135 5.50078 6.62191ZM17.5027 12.6229V12.1229H17.0027C15.6232 12.1229 14.5023 13.2437 14.5023 14.6232V15.1232H15.0023H17.0027H17.5027V14.6232V12.6229Z" stroke="#282561"/>
</svg>
