<svg width="20" height="21" viewBox="0 0 20 21" fill="none" xmlns="http://www.w3.org/2000/svg">
<path d="M9.16675 15.125H10.8334V11.7917H14.1667V10.125H10.8334V6.79167H9.16675V10.125H5.83342V11.7917H9.16675V15.125ZM10.0001 19.2917C8.8473 19.2917 7.76397 19.0764 6.75008 18.6458C5.73619 18.2014 4.85425 17.6042 4.10425 16.8542C3.35425 16.1042 2.75703 15.2222 2.31258 14.2083C1.88203 13.1944 1.66675 12.1111 1.66675 10.9583C1.66675 9.80555 1.88203 8.72222 2.31258 7.70833C2.75703 6.69444 3.35425 5.8125 4.10425 5.0625C4.85425 4.3125 5.73619 3.72222 6.75008 3.29167C7.76397 2.84722 8.8473 2.625 10.0001 2.625C11.1529 2.625 12.2362 2.84722 13.2501 3.29167C14.264 3.72222 15.1459 4.3125 15.8959 5.0625C16.6459 5.8125 17.2362 6.69444 17.6667 7.70833C18.1112 8.72222 18.3334 9.80555 18.3334 10.9583C18.3334 12.1111 18.1112 13.1944 17.6667 14.2083C17.2362 15.2222 16.6459 16.1042 15.8959 16.8542C15.1459 17.6042 14.264 18.2014 13.2501 18.6458C12.2362 19.0764 11.1529 19.2917 10.0001 19.2917ZM10.0001 17.625C11.8612 17.625 13.4376 16.9792 14.7292 15.6875C16.0209 14.3958 16.6667 12.8194 16.6667 10.9583C16.6667 9.09722 16.0209 7.52083 14.7292 6.22917C13.4376 4.9375 11.8612 4.29167 10.0001 4.29167C8.13897 4.29167 6.56258 4.9375 5.27091 6.22917C3.97925 7.52083 3.33341 9.09722 3.33341 10.9583C3.33341 12.8194 3.97925 14.3958 5.27091 15.6875C6.56258 16.9792 8.13897 17.625 10.0001 17.625Z" fill="#282561"/>
</svg>
