<svg width="20" height="21" viewBox="0 0 20 21" fill="none" xmlns="http://www.w3.org/2000/svg">
<path d="M4.16667 18.4573C3.70833 18.4573 3.3125 18.2976 2.97917 17.9781C2.65972 17.6448 2.5 17.2489 2.5 16.7906V5.12394C2.5 4.66561 2.65972 4.27672 2.97917 3.95728C3.3125 3.62394 3.70833 3.45728 4.16667 3.45728H15.8333C16.2917 3.45728 16.6806 3.62394 17 3.95728C17.3333 4.27672 17.5 4.66561 17.5 5.12394V16.7906C17.5 17.2489 17.3333 17.6448 17 17.9781C16.6806 18.2976 16.2917 18.4573 15.8333 18.4573H4.16667ZM4.16667 16.7906H15.8333V14.2906H13.3333C12.9167 14.8184 12.4167 15.2281 11.8333 15.5198C11.2639 15.8114 10.6528 15.9573 10 15.9573C9.34722 15.9573 8.72917 15.8114 8.14583 15.5198C7.57639 15.2281 7.08333 14.8184 6.66667 14.2906H4.16667V16.7906ZM10 14.2906C10.5278 14.2906 11.0069 14.1378 11.4375 13.8323C11.8681 13.5267 12.1667 13.1239 12.3333 12.6239H15.8333V5.12394H4.16667V12.6239H7.66667C7.83333 13.1239 8.13195 13.5267 8.5625 13.8323C8.99306 14.1378 9.47222 14.2906 10 14.2906ZM4.16667 16.7906H6.66667C7.08333 16.7906 7.57639 16.7906 8.14583 16.7906C8.72917 16.7906 9.34722 16.7906 10 16.7906C10.6528 16.7906 11.2639 16.7906 11.8333 16.7906C12.4167 16.7906 12.9167 16.7906 13.3333 16.7906H15.8333H4.16667Z" fill="#282561" fill-opacity="0.5"/>
</svg>
