<svg width="20" height="21" viewBox="0 0 20 21" fill="none" xmlns="http://www.w3.org/2000/svg">
<path d="M16.9408 6.62745L16.7214 6.84689L16.9408 6.62745ZM16.9408 6.62745L17.4397 6.62803L17.4402 6.12803M16.9408 6.62745L17.4402 6.12803M17.4402 6.12803L17.0867 5.77447L16.7339 6.12721M17.4402 6.12803L16.7339 6.12721M16.7339 6.12721L12.0019 6.12178L16.7339 6.12721ZM4.25416 12.3693C3.50349 11.6186 2.33118 11.5471 1.50016 12.1547V6.62185C1.50016 5.7947 2.17331 5.12154 3.00047 5.12154H9.89153C9.88174 5.20327 9.87662 5.2867 9.87662 5.37166C9.87662 6.2297 10.3859 6.96948 11.1185 7.305C10.7619 7.18491 10.385 7.12201 10.0016 7.12201C9.07318 7.12201 8.18282 7.49081 7.52636 8.14727C6.86989 8.80374 6.50109 9.6941 6.50109 10.6225C6.50109 11.5509 6.86989 12.4412 7.52636 13.0977C7.84548 13.4168 8.21988 13.668 8.62705 13.8418C8.42918 13.7809 8.21903 13.748 8.00125 13.748H4.87186C4.84268 13.2473 4.63725 12.7552 4.2555 12.3706L4.25416 12.3693ZM12.4768 8.14727C12.1576 7.82815 11.7832 7.57701 11.3761 7.40316C11.5739 7.4641 11.7841 7.49691 12.0019 7.49691H15.1313C15.1604 7.99766 15.3659 8.48972 15.7476 8.87437L15.749 8.8757C16.4996 9.62638 17.6719 9.69791 18.503 9.0903V14.6231C18.503 15.4503 17.8298 16.1234 17.0027 16.1234H10.1116C10.1214 16.0417 10.1265 15.9583 10.1265 15.8733C10.1265 15.0153 9.6172 14.2755 8.88459 13.94C9.24123 14.06 9.61816 14.1229 10.0016 14.1229C10.9299 14.1229 11.8203 13.7541 12.4768 13.0977C13.1332 12.4412 13.502 11.5509 13.502 10.6225C13.502 9.6941 13.1332 8.80374 12.4768 8.14727ZM2.5747 14.4043L2.20935 14.7696L1.35579 15.6232H2.5629H8.00125C8.1408 15.6232 8.25137 15.7338 8.25137 15.8733C8.25137 16.0128 8.1408 16.1234 8.00125 16.1234H2.55978H1.35267L2.20622 16.977L2.92508 17.6958C3.02467 17.7954 3.02193 17.9524 2.92698 18.0464C2.82452 18.1477 2.66611 18.1427 2.57454 18.0502L2.57237 18.048L0.572338 16.0511C0.526745 16.0055 0.5 15.9425 0.5 15.8733C0.5 15.804 0.526745 15.7411 0.572338 15.6955L2.57265 13.6952L2.2191 13.3417L2.57265 13.6952C2.67224 13.5956 2.82925 13.5984 2.9232 13.6933L3.27864 13.3417L2.9232 13.6933C3.02457 13.7958 3.01954 13.9542 2.92698 14.0458L2.56968 14.3993L2.5747 14.4043ZM17.4255 3.1948L17.4274 3.19669L19.4277 5.197C19.4733 5.2426 19.5 5.30553 19.5 5.37478C19.5 5.44404 19.4733 5.50697 19.4277 5.55256L17.4274 7.55288C17.3278 7.65246 17.1707 7.64973 17.0768 7.55477C16.9754 7.45231 16.9805 7.2939 17.073 7.20233L17.0749 7.20044L17.7938 6.48158L18.6459 5.62941L17.4408 5.62803L12.0024 5.62178H12.0019C11.8623 5.62178 11.7518 5.51121 11.7518 5.37166C11.7518 5.23211 11.8623 5.12154 12.0019 5.12154H17.4433H18.6542L17.7961 4.26722L17.0749 3.54913C17.0749 3.54911 17.0749 3.5491 17.0749 3.54909C16.9753 3.4495 16.9781 3.29251 17.073 3.19858C17.1755 3.09721 17.3339 3.10224 17.4255 3.1948ZM5.50078 6.62185V6.12185H5.00078H3.00047H2.50047V6.62185V8.62217V9.12217H3.00047C4.37991 9.12217 5.50078 8.00129 5.50078 6.62185ZM17.5027 12.6228V12.1228H17.0027C15.6232 12.1228 14.5023 13.2437 14.5023 14.6231V15.1231H15.0023H17.0027H17.5027V14.6231V12.6228Z" stroke="#282561" stroke-opacity="0.5"/>
</svg>
