<svg width="17" height="16" viewBox="0 0 17 16" fill="none" xmlns="http://www.w3.org/2000/svg">
<g clip-path="url(#clip0_1_3288)">
<path d="M3.58325 9.99998H2.91659C2.56296 9.99998 2.22382 9.8595 1.97378 9.60946C1.72373 9.35941 1.58325 9.02027 1.58325 8.66665V2.66665C1.58325 2.31302 1.72373 1.97389 1.97378 1.72384C2.22382 1.47379 2.56296 1.33331 2.91659 1.33331H8.91658C9.27021 1.33331 9.60935 1.47379 9.85939 1.72384C10.1094 1.97389 10.2499 2.31302 10.2499 2.66665V3.33331M7.58325 5.99998H13.5833C14.3196 5.99998 14.9166 6.59693 14.9166 7.33331V13.3333C14.9166 14.0697 14.3196 14.6666 13.5833 14.6666H7.58325C6.84687 14.6666 6.24992 14.0697 6.24992 13.3333V7.33331C6.24992 6.59693 6.84687 5.99998 7.58325 5.99998Z" stroke="#A6A6A6" stroke-width="1.6" stroke-linecap="round" stroke-linejoin="round"/>
</g>
<defs>
<clipPath id="clip0_1_3288">
<rect width="16" height="16" fill="white" transform="translate(0.25)"/>
</clipPath>
</defs>
</svg>
