<svg width="32" height="32" viewBox="0 0 32 32" fill="none" xmlns="http://www.w3.org/2000/svg">
<g clip-path="url(#clip0_2019_7273)">
<path d="M16 1.33398V30.6673M22.6667 6.66732H12.6667C11.429 6.66732 10.242 7.15898 9.36684 8.03415C8.49167 8.90932 8 10.0963 8 11.334C8 12.5717 8.49167 13.7586 9.36684 14.6338C10.242 15.509 11.429 16.0007 12.6667 16.0007H19.3333C20.571 16.0007 21.758 16.4923 22.6332 17.3675C23.5083 18.2427 24 19.4296 24 20.6673C24 21.905 23.5083 23.092 22.6332 23.9672C21.758 24.8423 20.571 25.334 19.3333 25.334H8" stroke="black" stroke-width="3" stroke-linecap="round" stroke-linejoin="round"/>
</g>
<defs>
<clipPath id="clip0_2019_7273">
<rect width="32" height="32" fill="white"/>
</clipPath>
</defs>
</svg>
