<svg width="60" height="60" viewBox="0 0 60 60" fill="none" xmlns="http://www.w3.org/2000/svg">
<path opacity="0.21" fill-rule="evenodd" clip-rule="evenodd" d="M0.610352 30V37C0.610352 49.7025 10.9069 60 23.6082 60H29.9233H36.2384C48.9398 60 59.2363 49.7025 59.2363 37V30V23C59.2363 10.2975 48.9398 0 36.2384 0H29.9233H23.6082C10.9068 0 0.610352 10.2975 0.610352 23V30Z" fill="#4AD991"/>
<g clip-path="url(#clip0_2012_1626)">
<path d="M29.9225 15.3333V44.6666M36.4365 20.6666H26.6655C25.4562 20.6666 24.2964 21.1583 23.4412 22.0335C22.5861 22.9087 22.1057 24.0956 22.1057 25.3333C22.1057 26.571 22.5861 27.758 23.4412 28.6331C24.2964 29.5083 25.4562 30 26.6655 30H33.1795C34.3888 30 35.5486 30.4916 36.4038 31.3668C37.2589 32.242 37.7393 33.429 37.7393 34.6666C37.7393 35.9043 37.2589 37.0913 36.4038 37.9665C35.5486 38.8417 34.3888 39.3333 33.1795 39.3333H22.1057" stroke="#4AD991" stroke-width="3" stroke-linecap="round" stroke-linejoin="round"/>
</g>
<defs>
<clipPath id="clip0_2012_1626">
<rect width="31.2672" height="32" fill="white" transform="translate(14.2888 14)"/>
</clipPath>
</defs>
</svg>
