<svg width="60" height="60" viewBox="0 0 60 60" fill="none" xmlns="http://www.w3.org/2000/svg">
<path opacity="0.21" fill-rule="evenodd" clip-rule="evenodd" d="M0.633789 30V37C0.633789 49.7025 10.9303 60 23.6317 60H29.9468H36.2619C48.9632 60 59.2597 49.7025 59.2597 37V30V23C59.2597 10.2975 48.9632 0 36.2619 0H29.9468H23.6317C10.9303 0 0.633789 10.2975 0.633789 23V30Z" fill="#FF9871"/>
<g clip-path="url(#clip0_2012_1658)">
<path fill-rule="evenodd" clip-rule="evenodd" d="M29.9464 17.3333C27.3822 17.3333 24.9134 18.3754 23.0858 20.2458C21.2566 22.1178 20.2211 24.6664 20.2211 27.3333C20.2211 31.2133 22.703 35.0643 25.5514 38.1413C26.9374 39.6386 28.3298 40.8664 29.3777 41.7204C29.5818 41.8868 29.7723 42.0385 29.9464 42.1747C30.1206 42.0385 30.311 41.8868 30.5152 41.7204C31.5631 40.8664 32.9555 39.6386 34.3415 38.1413C37.1899 35.0643 39.6718 31.2133 39.6718 27.3333C39.6718 24.6664 38.6362 22.1178 36.8071 20.2458C34.9795 18.3754 32.5107 17.3333 29.9464 17.3333ZM29.9464 44.6666C28.8194 46.3188 28.8189 46.3185 28.8184 46.3181L28.8171 46.3172L28.8137 46.3149L28.8038 46.3081L28.7714 46.2857C28.7444 46.2669 28.7064 46.2403 28.6584 46.2062C28.5623 46.1381 28.4256 46.0399 28.254 45.9131C27.9111 45.6596 27.4279 45.2913 26.8511 44.8212C25.7005 43.8835 24.1616 42.528 22.6163 40.8587C19.6021 37.6024 16.2214 32.7867 16.2214 27.3333C16.2214 23.635 17.6565 20.0791 20.2252 17.4502C22.7954 14.8198 26.2913 13.3333 29.9464 13.3333C33.6016 13.3333 37.0975 14.8198 39.6677 17.4502C42.2364 20.0791 43.6714 23.635 43.6714 27.3333C43.6714 32.7867 40.2908 37.6024 37.2765 40.8587C35.7312 42.528 34.1924 43.8835 33.0418 44.8212C32.465 45.2913 31.9818 45.6596 31.6389 45.9131C31.4673 46.0399 31.3306 46.1381 31.2345 46.2062C31.1865 46.2403 31.1485 46.2669 31.1215 46.2857L31.0891 46.3081L31.0791 46.3149L31.0758 46.3172L31.0745 46.3181C31.074 46.3185 31.0735 46.3188 29.9464 44.6666ZM29.9464 44.6666L31.0735 46.3188C30.3937 46.7826 29.4992 46.7826 28.8194 46.3188L29.9464 44.6666Z" fill="#FF9871"/>
<path fill-rule="evenodd" clip-rule="evenodd" d="M29.9465 25.3333C28.9357 25.3333 28.038 26.185 28.038 27.3333C28.038 28.4816 28.9357 29.3333 29.9465 29.3333C30.9574 29.3333 31.8551 28.4816 31.8551 27.3333C31.8551 26.185 30.9574 25.3333 29.9465 25.3333ZM24.0383 27.3333C24.0383 24.0634 26.6403 21.3333 29.9465 21.3333C33.2528 21.3333 35.8548 24.0634 35.8548 27.3333C35.8548 30.6033 33.2528 33.3333 29.9465 33.3333C26.6403 33.3333 24.0383 30.6033 24.0383 27.3333Z" fill="#FF9871"/>
</g>
<defs>
<clipPath id="clip0_2012_1658">
<rect width="27.3588" height="34" fill="white" transform="translate(16.2671 13)"/>
</clipPath>
</defs>
</svg>
