<svg width="25" height="24" viewBox="0 0 25 24" fill="none" xmlns="http://www.w3.org/2000/svg">
<g clip-path="url(#clip0_2019_6208)">
<path d="M12.5935 1V23M17.5935 5H10.0935C9.16525 5 8.27501 5.36875 7.61863 6.02513C6.96226 6.6815 6.59351 7.57174 6.59351 8.5C6.59351 9.42826 6.96226 10.3185 7.61863 10.9749C8.27501 11.6313 9.16525 12 10.0935 12H15.0935C16.0218 12 16.912 12.3687 17.5684 13.0251C18.2248 13.6815 18.5935 14.5717 18.5935 15.5C18.5935 16.4283 18.2248 17.3185 17.5684 17.9749C16.912 18.6313 16.0218 19 15.0935 19H6.59351" stroke="black" stroke-opacity="0.4" stroke-width="2.5" stroke-linecap="round" stroke-linejoin="round"/>
</g>
<defs>
<clipPath id="clip0_2019_6208">
<rect width="24" height="24" fill="white" transform="translate(0.593506)"/>
</clipPath>
</defs>
</svg>
