<svg width="59" height="60" viewBox="0 0 59 60" fill="none" xmlns="http://www.w3.org/2000/svg">
<path opacity="0.21" fill-rule="evenodd" clip-rule="evenodd" d="M0.296875 30V37C0.296875 49.7025 10.5943 60 23.2969 60H29.6126H35.9283C48.6308 60 58.9283 49.7025 58.9283 37V30V23C58.9283 10.2975 48.6308 0 35.9282 0H29.6126H23.2969C10.5943 0 0.296875 10.2975 0.296875 23V30Z" fill="#FEC53D"/>
<path fill-rule="evenodd" clip-rule="evenodd" d="M14.9548 24.3145L27.5611 31.7626C27.6968 31.8428 27.8391 31.9007 27.984 31.9375V46.3827L15.8539 39.0365C15.2966 38.699 14.9548 38.0855 14.9548 37.4229V24.3145ZM44.2699 24.1172V37.4236C44.2699 38.0863 43.9281 38.6997 43.3708 39.0372L31.2407 46.3834V31.8116C31.2702 31.7965 31.2995 31.7804 31.3285 31.7633L44.2699 24.1172Z" fill="#FEC53D"/>
<path opacity="0.499209" fill-rule="evenodd" clip-rule="evenodd" d="M15.3494 20.7014C15.5033 20.5024 15.6977 20.3343 15.9243 20.2108L28.7499 13.2201C29.2883 12.9266 29.9341 12.9266 30.4726 13.2201L43.2982 20.2108C43.4728 20.306 43.6284 20.4277 43.761 20.5697L29.6991 28.8778C29.6066 28.9325 29.5214 28.995 29.4437 29.064C29.366 28.995 29.2807 28.9325 29.1883 28.8778L15.3494 20.7014Z" fill="#FEC53D"/>
</svg>
