<svg width="6" height="20" viewBox="0 0 6 20" fill="none" xmlns="http://www.w3.org/2000/svg">
<path d="M3.02246 11C3.57475 11 4.02246 10.5523 4.02246 10C4.02246 9.44772 3.57475 9 3.02246 9C2.47018 9 2.02246 9.44772 2.02246 10C2.02246 10.5523 2.47018 11 3.02246 11Z" stroke="#1E1E1E" stroke-width="2.5" stroke-linecap="round" stroke-linejoin="round"/>
<path d="M3.02246 4C3.57475 4 4.02246 3.55228 4.02246 3C4.02246 2.44772 3.57475 2 3.02246 2C2.47018 2 2.02246 2.44772 2.02246 3C2.02246 3.55228 2.47018 4 3.02246 4Z" stroke="#1E1E1E" stroke-width="2.5" stroke-linecap="round" stroke-linejoin="round"/>
<path d="M3.02246 18C3.57475 18 4.02246 17.5523 4.02246 17C4.02246 16.4477 3.57475 16 3.02246 16C2.47018 16 2.02246 16.4477 2.02246 17C2.02246 17.5523 2.47018 18 3.02246 18Z" stroke="#1E1E1E" stroke-width="2.5" stroke-linecap="round" stroke-linejoin="round"/>
</svg>
