<svg width="17" height="16" viewBox="0 0 17 16" fill="none" xmlns="http://www.w3.org/2000/svg">
<g clip-path="url(#clip0_1_3287)">
<path d="M15.5834 2.66668V6.66668M15.5834 6.66668H11.5834M15.5834 6.66668L12.4901 3.76001C11.7736 3.04315 10.8872 2.51948 9.91354 2.23786C8.93992 1.95624 7.91082 1.92584 6.92227 2.14952C5.93372 2.37319 5.01795 2.84363 4.26039 3.51696C3.50284 4.19028 2.92819 5.04453 2.59008 6.00001M0.916748 13.3333V9.33334M0.916748 9.33334H4.91675M0.916748 9.33334L4.01008 12.24C4.72658 12.9569 5.613 13.4805 6.58662 13.7622C7.56024 14.0438 8.58934 14.0742 9.57789 13.8505C10.5664 13.6268 11.4822 13.1564 12.2398 12.4831C12.9973 11.8097 13.572 10.9555 13.9101 10" stroke="#A6A6A6" stroke-width="1.6" stroke-linecap="round" stroke-linejoin="round"/>
</g>
<defs>
<clipPath id="clip0_1_3287">
<rect width="16" height="16" fill="white" transform="translate(0.25)"/>
</clipPath>
</defs>
</svg>
