<svg width="119" height="119" viewBox="0 0 119 119" fill="none" xmlns="http://www.w3.org/2000/svg">
<g filter="url(#filter0_d_11_1369)">
<path d="M88.8334 104.139H29.8334C20.5624 104.139 15.9269 104.139 13.0468 101.259C10.1667 98.3786 10.1667 93.7431 10.1667 84.4723C10.1667 75.2014 10.1667 70.566 13.0468 67.6858C15.9269 64.8056 20.5624 64.8056 29.8334 64.8056H88.8334C98.1042 64.8056 102.74 64.8056 105.62 67.6858C108.5 70.566 108.5 75.2014 108.5 84.4723C108.5 93.7431 108.5 98.3786 105.62 101.259C102.74 104.139 98.1042 104.139 88.8334 104.139Z" stroke="#282561" stroke-width="8.5" stroke-linecap="round" stroke-linejoin="round"/>
<path d="M39.6667 17.9879C45.3151 13.3927 52.0611 10.7222 59.3068 10.7222C66.5751 10.7222 73.3409 13.4095 79 18.0314M70.0237 30.3889C66.7978 28.3773 63.158 27.2456 59.3068 27.2456C55.4748 27.2456 51.8522 28.366 48.6385 30.3587" stroke="#282561" stroke-width="8.5" stroke-linecap="round"/>
<path d="M59.3334 45.1389H59.3648" stroke="#282561" stroke-width="8.5" stroke-linecap="round" stroke-linejoin="round"/>
<path d="M88.8325 84.4722H88.8767" stroke="#282561" stroke-width="8.5" stroke-linecap="round" stroke-linejoin="round"/>
<path d="M69.1658 84.4722H69.2101" stroke="#282561" stroke-width="8.5" stroke-linecap="round" stroke-linejoin="round"/>
<path d="M29.8334 84.4722H49.5" stroke="#282561" stroke-width="8.5" stroke-linecap="round" stroke-linejoin="round"/>
</g>
<defs>
<filter id="filter0_d_11_1369" x="-3.66663" y="0.888916" width="126" height="126" filterUnits="userSpaceOnUse" color-interpolation-filters="sRGB">
<feFlood flood-opacity="0" result="BackgroundImageFix"/>
<feColorMatrix in="SourceAlpha" type="matrix" values="0 0 0 0 0 0 0 0 0 0 0 0 0 0 0 0 0 0 127 0" result="hardAlpha"/>
<feOffset dy="4"/>
<feGaussianBlur stdDeviation="2"/>
<feComposite in2="hardAlpha" operator="out"/>
<feColorMatrix type="matrix" values="0 0 0 0 0 0 0 0 0 0 0 0 0 0 0 0 0 0 0.25 0"/>
<feBlend mode="normal" in2="BackgroundImageFix" result="effect1_dropShadow_11_1369"/>
<feBlend mode="normal" in="SourceGraphic" in2="effect1_dropShadow_11_1369" result="shape"/>
</filter>
</defs>
</svg>
