<svg width="20" height="21" viewBox="0 0 20 21" fill="none" xmlns="http://www.w3.org/2000/svg">
<path d="M9.16675 15.124H10.8334V11.7906H14.1667V10.124H10.8334V6.79063H9.16675V10.124H5.83342V11.7906H9.16675V15.124ZM10.0001 19.2906C8.8473 19.2906 7.76397 19.0754 6.75008 18.6448C5.73619 18.2004 4.85425 17.6031 4.10425 16.8531C3.35425 16.1031 2.75703 15.2212 2.31258 14.2073C1.88203 13.1934 1.66675 12.1101 1.66675 10.9573C1.66675 9.80452 1.88203 8.72118 2.31258 7.7073C2.75703 6.69341 3.35425 5.81146 4.10425 5.06146C4.85425 4.31146 5.73619 3.72118 6.75008 3.29063C7.76397 2.84618 8.8473 2.62396 10.0001 2.62396C11.1529 2.62396 12.2362 2.84618 13.2501 3.29063C14.264 3.72118 15.1459 4.31146 15.8959 5.06146C16.6459 5.81146 17.2362 6.69341 17.6667 7.7073C18.1112 8.72118 18.3334 9.80452 18.3334 10.9573C18.3334 12.1101 18.1112 13.1934 17.6667 14.2073C17.2362 15.2212 16.6459 16.1031 15.8959 16.8531C15.1459 17.6031 14.264 18.2004 13.2501 18.6448C12.2362 19.0754 11.1529 19.2906 10.0001 19.2906ZM10.0001 17.624C11.8612 17.624 13.4376 16.9781 14.7292 15.6865C16.0209 14.3948 16.6667 12.8184 16.6667 10.9573C16.6667 9.09618 16.0209 7.5198 14.7292 6.22813C13.4376 4.93646 11.8612 4.29063 10.0001 4.29063C8.13897 4.29063 6.56258 4.93646 5.27091 6.22813C3.97925 7.5198 3.33341 9.09618 3.33341 10.9573C3.33341 12.8184 3.97925 14.3948 5.27091 15.6865C6.56258 16.9781 8.13897 17.624 10.0001 17.624Z" fill="#282561" fill-opacity="0.5"/>
</svg>
