<svg width="20" height="21" viewBox="0 0 20 21" fill="none" xmlns="http://www.w3.org/2000/svg">
<path d="M6.33333 7.29688H17V7.96354H6.33333V7.29688ZM6.33333 10.6302H17V11.2969H6.33333V10.6302ZM6.33333 13.9635H17V14.6302H6.33333V13.9635ZM3.33333 7.96354C3.22314 7.96354 3.15446 7.93173 3.09314 7.8704C3.03181 7.80908 3 7.7404 3 7.63021C3 7.52001 3.03181 7.45134 3.09314 7.39001C3.15446 7.32869 3.22314 7.29688 3.33333 7.29688C3.44353 7.29688 3.5122 7.32869 3.57353 7.39001C3.63486 7.45134 3.66667 7.52001 3.66667 7.63021C3.66667 7.7404 3.63486 7.80908 3.57353 7.8704C3.5122 7.93173 3.44353 7.96354 3.33333 7.96354ZM3.33333 11.2969C3.22314 11.2969 3.15446 11.2651 3.09314 11.2037C3.03181 11.1424 3 11.0737 3 10.9635C3 10.8533 3.03181 10.7847 3.09314 10.7233C3.15446 10.662 3.22314 10.6302 3.33333 10.6302C3.44353 10.6302 3.5122 10.662 3.57353 10.7233C3.63486 10.7847 3.66667 10.8533 3.66667 10.9635C3.66667 11.0737 3.63486 11.1424 3.57353 11.2037C3.5122 11.2651 3.44353 11.2969 3.33333 11.2969ZM3.33333 14.6302C3.22314 14.6302 3.15446 14.5984 3.09314 14.5371C3.03181 14.4757 3 14.4071 3 14.2969C3 14.1867 3.03181 14.118 3.09314 14.0567C3.15446 13.9954 3.22314 13.9635 3.33333 13.9635C3.44353 13.9635 3.5122 13.9954 3.57353 14.0567C3.63486 14.118 3.66667 14.1867 3.66667 14.2969C3.66667 14.4071 3.63486 14.4757 3.57353 14.5371C3.5122 14.5984 3.44353 14.6302 3.33333 14.6302Z" stroke="#282561"/>
</svg>
