<svg width="33" height="32" viewBox="0 0 33 32" fill="none" xmlns="http://www.w3.org/2000/svg">
<path d="M32.5 16C32.5 24.8366 25.3366 32 16.5 32C7.66344 32 0.5 24.8366 0.5 16C0.5 7.16344 7.66344 0 16.5 0C25.3366 0 32.5 7.16344 32.5 16Z" fill="#282561"/>
<path d="M19.8335 10C20.0086 9.82494 20.2165 9.68605 20.4452 9.59129C20.674 9.49653 20.9192 9.44775 21.1668 9.44775C21.4145 9.44775 21.6596 9.49653 21.8884 9.59129C22.1172 9.68605 22.3251 9.82494 22.5002 10C22.6753 10.1751 22.8142 10.383 22.9089 10.6118C23.0037 10.8406 23.0524 11.0857 23.0524 11.3334C23.0524 11.581 23.0037 11.8262 22.9089 12.055C22.8142 12.2837 22.6753 12.4916 22.5002 12.6667L13.5002 21.6667L9.8335 22.6667L10.8335 19L19.8335 10Z" stroke="white" stroke-width="1.6" stroke-linecap="round" stroke-linejoin="round"/>
</svg>
